<?xml version="1.0" encoding="UTF-8" standalone="no"?>
<!DOCTYPE svg PUBLIC "-//W3C//DTD SVG 1.1//EN" "http://www.w3.org/Graphics/SVG/1.1/DTD/svg11.dtd">
<svg width="100%" height="100%" viewBox="0 0 980 490" version="1.1" xmlns="http://www.w3.org/2000/svg" xmlns:xlink="http://www.w3.org/1999/xlink" xml:space="preserve" xmlns:serif="http://www.serif.com/" style="fill-rule:evenodd;clip-rule:evenodd;stroke-linejoin:round;stroke-miterlimit:2;">
    <g transform="matrix(1,0,0,1,-110,-205.26)">
        <path d="M317.06,205.26C290.435,205.214 264.053,210.331 239.375,220.327C238.382,220.734 237.384,221.143 236.387,221.562C159.86,253.855 109.901,329.258 110,412.32L110,638.26C110.006,643.195 114.065,647.254 119,647.26L119.179,647.275C292.646,678.777 461.285,694.74 620.551,694.74C622.938,694.74 625.324,694.737 627.707,694.73C784.262,694.253 936.701,678.29 1080.79,647.282L1081,647.26C1085.93,647.254 1090,643.195 1090,638.26L1090,214.26C1089.99,209.325 1085.93,205.265 1081,205.26L317.06,205.26Z" style="fill:rgb(123,185,61);fill-rule:nonzero;"/>
    </g>
    <g id="f4300551-56ef-4356-8f30-d0080b223343-294" transform="matrix(1,0,0,1,-110,-205.26)">
        <path d="M855.799,385.452C852.575,385.505 849.95,388.173 849.95,391.398C849.95,394.624 852.575,397.291 855.799,397.344L1004.88,397.344C1004.92,397.345 1004.96,397.345 1004.99,397.345C1008.25,397.345 1010.94,394.661 1010.94,391.399C1010.94,388.171 1008.31,385.502 1005.08,385.452C1005.01,385.451 1004.95,385.451 1004.88,385.452L855.799,385.452Z" style="fill:rgb(63,61,86);fill-rule:nonzero;"/>
    </g>
    <g transform="matrix(1,0,0,1,-110,-205.26)">
        <path d="M1038.69,383.797C1038.47,384.016 1038.35,384.314 1038.35,384.624C1038.35,384.934 1038.47,385.232 1038.69,385.451L1043.72,390.474L1031.33,390.474C1030.69,390.474 1030.16,391.003 1030.16,391.644C1030.16,392.286 1030.69,392.814 1031.33,392.814L1043.72,392.814L1038.69,397.837C1038.47,398.057 1038.35,398.355 1038.35,398.665C1038.35,399.307 1038.88,399.835 1039.52,399.835C1039.83,399.835 1040.13,399.711 1040.35,399.492L1047.37,392.472C1047.82,392.018 1047.82,391.271 1047.37,390.817L1040.35,383.797C1040.13,383.577 1039.83,383.454 1039.52,383.454C1039.21,383.454 1038.91,383.577 1038.69,383.797Z" style="fill:white;fill-rule:nonzero;"/>
    </g>
    <g transform="matrix(1,0,0,1,-110,-205.26)">
        <path d="M821.927,383.797C822.147,384.016 822.27,384.314 822.27,384.624C822.27,384.934 822.147,385.232 821.927,385.451L816.905,390.474L829.29,390.474C829.292,390.474 829.293,390.474 829.294,390.474C829.936,390.474 830.464,391.003 830.464,391.644C830.464,392.286 829.936,392.814 829.294,392.814C829.293,392.814 829.292,392.814 829.29,392.814L816.905,392.814L821.927,397.837C822.147,398.057 822.27,398.355 822.27,398.665C822.27,399.307 821.742,399.835 821.1,399.835C820.79,399.835 820.492,399.711 820.273,399.492L813.252,392.472C812.799,392.018 812.799,391.271 813.252,390.817L820.273,383.797C820.492,383.577 820.79,383.454 821.1,383.454C821.41,383.454 821.708,383.577 821.927,383.797Z" style="fill:white;fill-rule:nonzero;"/>
    </g>
    <g opacity="0.4">
        <circle cx="751.82" cy="50.39" r="6.39" style="fill:white;"/>
        <circle cx="778.445" cy="50.39" r="6.39" style="fill:white;"/>
        <circle cx="805.069" cy="50.39" r="6.39" style="fill:white;"/>
        <circle cx="831.694" cy="50.39" r="6.39" style="fill:white;"/>
        <circle cx="858.318" cy="50.39" r="6.39" style="fill:white;"/>
        <circle cx="884.943" cy="50.39" r="6.39" style="fill:white;"/>
        <circle cx="911.567" cy="50.39" r="6.39" style="fill:white;"/>
        <circle cx="751.82" cy="70.625" r="6.39" style="fill:white;"/>
        <circle cx="778.445" cy="70.625" r="6.39" style="fill:white;"/>
        <circle cx="805.069" cy="70.625" r="6.39" style="fill:white;"/>
        <circle cx="831.694" cy="70.625" r="6.39" style="fill:white;"/>
        <circle cx="858.318" cy="70.625" r="6.39" style="fill:white;"/>
        <circle cx="884.943" cy="70.625" r="6.39" style="fill:white;"/>
        <circle cx="911.567" cy="70.625" r="6.39" style="fill:white;"/>
        <circle cx="751.82" cy="90.859" r="6.39" style="fill:white;"/>
        <circle cx="778.445" cy="90.859" r="6.39" style="fill:white;"/>
        <circle cx="805.069" cy="90.859" r="6.39" style="fill:white;"/>
        <circle cx="831.694" cy="90.859" r="6.39" style="fill:white;"/>
        <circle cx="858.318" cy="90.859" r="6.39" style="fill:white;"/>
        <circle cx="884.943" cy="90.859" r="6.39" style="fill:white;"/>
        <circle cx="911.567" cy="90.859" r="6.39" style="fill:white;"/>
        <circle cx="751.82" cy="111.094" r="6.39" style="fill:white;"/>
        <circle cx="778.445" cy="111.094" r="6.39" style="fill:white;"/>
        <circle cx="751.82" cy="131.329" r="6.39" style="fill:white;"/>
        <circle cx="778.445" cy="131.329" r="6.39" style="fill:white;"/>
        <circle cx="805.069" cy="131.329" r="6.39" style="fill:white;"/>
        <circle cx="805.069" cy="111.094" r="6.39" style="fill:white;"/>
        <circle cx="831.694" cy="111.094" r="6.39" style="fill:white;"/>
        <circle cx="858.318" cy="111.094" r="6.39" style="fill:white;"/>
        <circle cx="884.943" cy="111.094" r="6.39" style="fill:white;"/>
        <circle cx="911.567" cy="111.094" r="6.39" style="fill:white;"/>
    </g>
    <g transform="matrix(1,0,0,1,-110,-205.26)">
        <path d="M770.157,580.719C750.807,580.719 734.885,564.796 734.885,545.446C734.885,526.096 750.807,510.174 770.157,510.174C789.507,510.174 805.43,526.096 805.43,545.446C805.408,564.788 789.499,580.697 770.157,580.719ZM770.157,512.174C751.904,512.174 736.885,527.194 736.885,545.446C736.885,563.699 751.904,578.719 770.157,578.719C788.41,578.719 803.43,563.699 803.43,545.446C803.409,527.201 788.402,512.194 770.157,512.174Z" style="fill:rgb(63,61,86);fill-rule:nonzero;"/>
    </g>
    <g transform="matrix(1,0,0,1,-110,-205.26)">
        <path d="M783.681,542.065L773.538,542.065L773.538,531.923C773.538,530.068 772.012,528.542 770.158,528.542C768.303,528.542 766.777,530.068 766.777,531.923L766.777,542.065L756.634,542.065C754.78,542.065 753.254,543.592 753.254,545.446C753.254,547.301 754.78,548.827 756.634,548.827L766.777,548.827L766.777,558.969C766.777,560.824 768.303,562.35 770.158,562.35C772.012,562.35 773.538,560.824 773.538,558.969L773.538,548.827L783.681,548.827C785.535,548.827 787.061,547.301 787.061,545.446C787.061,543.592 785.535,542.065 783.681,542.065Z" style="fill:white;fill-rule:nonzero;"/>
    </g>
    <g opacity="0.4">
        <circle cx="54.024" cy="374.766" r="5.024" style="fill:white;"/>
        <circle cx="54.024" cy="353.833" r="5.024" style="fill:white;"/>
        <circle cx="54.024" cy="332.9" r="5.024" style="fill:white;"/>
        <circle cx="54.024" cy="311.967" r="5.024" style="fill:white;"/>
        <circle cx="54.024" cy="291.034" r="5.024" style="fill:white;"/>
        <circle cx="54.024" cy="270.101" r="5.024" style="fill:white;"/>
        <circle cx="54.024" cy="249.168" r="5.024" style="fill:white;"/>
        <circle cx="69.933" cy="374.766" r="5.024" style="fill:white;"/>
        <circle cx="69.933" cy="353.833" r="5.024" style="fill:white;"/>
        <circle cx="69.933" cy="332.9" r="5.024" style="fill:white;"/>
        <circle cx="69.933" cy="311.967" r="5.024" style="fill:white;"/>
        <circle cx="69.933" cy="291.034" r="5.024" style="fill:white;"/>
        <circle cx="69.933" cy="270.101" r="5.024" style="fill:white;"/>
        <circle cx="69.933" cy="249.168" r="5.024" style="fill:white;"/>
        <circle cx="85.842" cy="374.766" r="5.024" style="fill:white;"/>
        <circle cx="85.842" cy="353.833" r="5.024" style="fill:white;"/>
        <circle cx="85.842" cy="332.9" r="5.024" style="fill:white;"/>
        <circle cx="85.842" cy="311.967" r="5.024" style="fill:white;"/>
        <circle cx="85.842" cy="291.034" r="5.024" style="fill:white;"/>
        <circle cx="85.842" cy="270.101" r="5.024" style="fill:white;"/>
        <circle cx="85.842" cy="249.168" r="5.024" style="fill:white;"/>
        <circle cx="101.751" cy="374.766" r="5.024" style="fill:white;"/>
        <circle cx="101.751" cy="353.833" r="5.024" style="fill:white;"/>
        <circle cx="117.66" cy="374.766" r="5.024" style="fill:white;"/>
        <circle cx="117.66" cy="353.833" r="5.024" style="fill:white;"/>
        <circle cx="117.66" cy="332.9" r="5.024" style="fill:white;"/>
        <circle cx="101.751" cy="332.9" r="5.024" style="fill:white;"/>
        <circle cx="101.751" cy="311.967" r="5.024" style="fill:white;"/>
        <circle cx="101.751" cy="291.034" r="5.024" style="fill:white;"/>
        <circle cx="101.751" cy="270.101" r="5.024" style="fill:white;"/>
        <circle cx="101.751" cy="249.168" r="5.024" style="fill:white;"/>
    </g>
    <g transform="matrix(1,0,0,1,-110,-205.26)">
        <path d="M607.408,238.262L273.666,238.262C270.276,238.265 267.487,241.054 267.484,244.444L267.484,529.828C267.487,533.218 270.276,536.007 273.666,536.01L607.408,536.01C610.799,536.007 613.587,533.218 613.591,529.828L613.591,244.444C613.587,241.054 610.799,238.265 607.408,238.262ZM611.113,529.828C611.112,531.862 609.442,533.537 607.408,533.544L273.666,533.544C271.631,533.541 269.958,531.863 269.962,529.828L269.962,244.444C269.958,242.409 271.631,240.731 273.666,240.728L607.408,240.728C609.442,240.735 611.112,242.41 611.113,244.444L611.113,529.828Z" style="fill:rgb(63,61,86);fill-rule:nonzero;"/>
    </g>
    <g transform="matrix(1,0,0,1,-110,-205.26)">
        <path d="M350.702,485.266C350.702,485.706 350.691,486.146 350.668,486.574C349.973,499.871 338.843,510.435 325.527,510.435C312.212,510.435 301.082,499.871 300.387,486.574C300.364,486.146 300.352,485.706 300.352,485.266C300.352,485.261 300.352,485.256 300.352,485.25C300.352,471.44 311.717,460.075 325.527,460.075C339.338,460.075 350.702,471.44 350.702,485.25C350.702,485.256 350.702,485.261 350.702,485.266Z" style="fill:white;fill-rule:nonzero;"/>
    </g>
    <g transform="matrix(1,0,0,1,-110,-205.26)">
        <path d="M581.475,468.479L383.663,468.479C381.363,468.482 379.473,470.376 379.473,472.676C379.473,474.976 381.363,476.869 383.663,476.872L581.475,476.872C583.775,476.869 585.665,474.976 585.665,472.676C585.665,470.376 583.775,468.482 581.475,468.479Z" style="fill:rgb(63,61,86);fill-rule:nonzero;"/>
    </g>
    <g transform="matrix(1,0,0,1,-110,-205.26)">
        <path d="M468.78,493.66L383.663,493.66C381.364,493.66 379.472,495.552 379.472,497.851C379.472,500.15 381.364,502.042 383.663,502.042L468.78,502.042C471.08,502.042 472.971,500.15 472.971,497.851C472.971,495.552 471.08,493.66 468.78,493.66Z" style="fill:white;fill-rule:nonzero;"/>
    </g>
    <g transform="matrix(1,0,0,1,-110,-205.26)">
        <path d="M686.698,438.841L352.958,438.841C348.27,438.835 344.414,434.979 344.409,430.291L344.409,283.829C344.414,279.141 348.27,275.285 352.958,275.28L686.698,275.28C691.386,275.285 695.242,279.141 695.247,283.829L695.247,430.291C695.242,434.979 691.386,438.835 686.698,438.841ZM352.958,278.28C349.915,278.283 347.412,280.786 347.409,283.829L347.409,430.291C347.412,433.334 349.915,435.837 352.958,435.841L686.698,435.841C689.741,435.837 692.244,433.334 692.247,430.291L692.247,283.829C692.244,280.786 689.741,278.283 686.698,278.28L352.958,278.28Z" style="fill:white;fill-rule:nonzero;"/>
    </g>
    <g transform="matrix(1,0,0,1,-110,-205.26)">
        <path d="M420.924,328.699C418.622,328.699 416.728,330.593 416.728,332.895C416.728,335.197 418.622,337.091 420.924,337.091L618.732,337.091C621.033,337.091 622.927,335.197 622.927,332.895C622.927,330.593 621.033,328.699 618.732,328.699L420.924,328.699Z" style="fill:white;fill-rule:nonzero;"/>
    </g>
    <g transform="matrix(1,0,0,1,-110,-205.26)">
        <path d="M420.924,353.012C418.622,353.012 416.728,354.906 416.728,357.208C416.728,359.51 418.622,361.404 420.924,361.404L618.732,361.404C621.031,361.4 622.921,359.507 622.921,357.208C622.921,354.908 621.031,353.015 618.732,353.012L420.924,353.012Z" style="fill:white;fill-rule:nonzero;"/>
    </g>
    <g transform="matrix(1,0,0,1,-110,-205.26)">
        <path d="M420.924,377.03C418.622,377.03 416.728,378.924 416.728,381.225C416.728,383.527 418.622,385.421 420.924,385.421L506.041,385.421C508.341,385.418 510.231,383.525 510.231,381.225C510.231,378.926 508.341,377.033 506.041,377.03L420.924,377.03Z" style="fill:white;fill-rule:nonzero;"/>
    </g>
    <g transform="matrix(1,0,0,1,-110,-205.26)">
        <path d="M741.724,500.893L708.204,453.585L719.055,455.846C719.156,455.867 719.258,455.878 719.361,455.878C720.184,455.878 720.862,455.2 720.862,454.377C720.862,453.668 720.361,453.052 719.667,452.907L703.496,449.541L701.314,465.911C701.305,465.979 701.3,466.046 701.3,466.114C701.3,466.938 701.978,467.615 702.801,467.615C703.552,467.615 704.193,467.052 704.29,466.308L705.753,455.315L739.276,502.627C739.557,503.023 740.014,503.26 740.5,503.26C741.323,503.26 742,502.583 742,501.76C742,501.449 741.903,501.146 741.724,500.893L741.724,500.893Z" style="fill:white;fill-rule:nonzero;"/>
    </g>
    <g transform="matrix(1,0,0,1,-110,-205.26)">
        <path d="M559.666,638.58L321.409,638.58C318.989,638.577 317,636.588 316.997,634.168L316.997,575.067C317,572.647 318.989,570.657 321.409,570.655L559.666,570.655C562.085,570.657 564.075,572.647 564.078,575.067L564.078,634.168C564.075,636.588 562.085,638.577 559.666,638.58ZM321.409,572.419C319.957,572.421 318.763,573.615 318.762,575.067L318.762,634.168C318.763,635.62 319.957,636.814 321.409,636.815L559.666,636.815C561.118,636.814 562.312,635.62 562.313,634.168L562.313,575.067C562.312,573.615 561.118,572.421 559.666,572.419L321.409,572.419Z" style="fill:rgb(63,61,86);fill-rule:nonzero;"/>
    </g>
    <circle cx="248.429" cy="397.09" r="17.973" style="fill:white;"/>
    <g transform="matrix(1,0,0,1,-110,-205.26)">
        <path d="M399.938,590.368C399.936,590.368 399.934,590.368 399.932,590.368C398.289,590.368 396.937,591.72 396.937,593.363C396.937,595.007 398.289,596.359 399.932,596.359C399.934,596.359 399.936,596.359 399.938,596.359L541.153,596.359C542.796,596.359 544.148,595.007 544.148,593.363C544.148,591.72 542.796,590.368 541.153,590.368L399.938,590.368Z" style="fill:white;fill-rule:nonzero;"/>
    </g>
    <g transform="matrix(1,0,0,1,-110,-205.26)">
        <path d="M399.938,608.341C399.936,608.341 399.934,608.341 399.932,608.341C398.289,608.341 396.937,609.693 396.937,611.336C396.937,612.979 398.289,614.332 399.932,614.332C399.934,614.332 399.936,614.332 399.938,614.332L460.703,614.332C462.346,614.332 463.698,612.979 463.698,611.336C463.698,609.693 462.346,608.341 460.703,608.341L399.938,608.341Z" style="fill:white;fill-rule:nonzero;"/>
    </g>
    <g transform="matrix(1,0,0,1,-110,-205.26)">
        <path d="M874.025,428.016L979.917,428.016C982.336,428.018 984.326,430.008 984.329,432.428L984.329,542.71C984.326,545.13 982.336,547.12 979.917,547.122L874.025,547.122C871.605,547.12 869.615,545.13 869.612,542.71L869.612,432.428C869.615,430.008 871.605,428.018 874.024,428.016ZM979.917,545.358C981.368,545.356 982.562,544.162 982.564,542.71L982.564,432.428C982.562,430.976 981.368,429.782 979.917,429.78L874.025,429.78C872.573,429.782 871.379,430.976 871.377,432.428L871.377,542.71C871.379,544.162 872.573,545.356 874.025,545.358L979.917,545.358Z" style="fill:rgb(63,61,86);fill-rule:nonzero;"/>
    </g>
    <g transform="matrix(1,0,0,1,-110,-205.26)">
        <path d="M957.353,524.38C958.997,524.38 960.349,523.028 960.349,521.385C960.349,519.741 958.997,518.389 957.353,518.389L896.588,518.389C894.945,518.389 893.593,519.741 893.593,521.385C893.593,523.028 894.945,524.38 896.588,524.38L957.353,524.38Z" style="fill:white;fill-rule:nonzero;"/>
    </g>
    <g transform="matrix(1,0,0,1,-110,-205.26)">
        <path d="M957.353,506.731C957.355,506.731 957.357,506.731 957.359,506.731C959.002,506.731 960.354,505.379 960.354,503.736C960.354,502.093 959.002,500.741 957.359,500.741C957.357,500.741 957.355,500.741 957.353,500.741L896.588,500.741C896.586,500.741 896.584,500.741 896.583,500.741C894.939,500.741 893.587,502.093 893.587,503.736C893.587,505.379 894.939,506.731 896.583,506.731C896.584,506.731 896.586,506.731 896.588,506.731L957.353,506.731Z" style="fill:white;fill-rule:nonzero;"/>
    </g>
    <g transform="matrix(1,0,0,1,-110,-205.26)">
        <path d="M926.97,450.758C937.314,450.758 945.826,459.269 945.826,469.613C945.826,479.957 937.314,488.468 926.97,488.468C916.627,488.468 908.115,479.957 908.115,469.613C908.127,459.274 916.631,450.77 926.97,450.758Z" style="fill:white;fill-rule:nonzero;"/>
    </g>
</svg>
