<?xml version="1.0" encoding="iso-8859-1"?>
<!-- Generator: Adobe Illustrator 19.0.0, SVG Export Plug-In . SVG Version: 6.00 Build 0)  -->
<svg version="1.1" id="Layer_1" xmlns="http://www.w3.org/2000/svg" xmlns:xlink="http://www.w3.org/1999/xlink" x="0px" y="0px"
	 viewBox="0 0 512 512" style="enable-background:new 0 0 512 512;" xml:space="preserve">
<path style="fill:#8FB84A;" d="M473.531,300.334l0.046,0.321c0,37.495-30.403,67.886-67.897,67.886H111.456
	c-55.67-0.001-100.804-45.125-100.804-100.805v-61.537c0-34.635,28.344-63.425,62.978-62.727
	c33.514,0.664,60.462,28.035,60.462,61.708h275.053v-6.371c0-25.461,20.645-46.096,46.107-46.096
	c12.731,0,24.249,5.159,32.599,13.497c8.338,8.35,13.497,19.868,13.497,32.599v69.602
	C501.348,284.721,489.247,298.195,473.531,300.334z"/>
<path d="M512,268.411v-69.602c0-15.148-5.899-29.399-16.621-40.136c-10.726-10.712-24.977-16.612-40.126-16.612
	c-29.856,0-54.402,23.168-56.599,52.467H262.291c-5.882,0-10.652,4.769-10.652,10.652c0,5.883,4.77,10.652,10.652,10.652h146.854
	c5.882,0,10.652-4.769,10.652-10.652v-6.371c0-19.544,15.905-35.443,35.455-35.443c9.464,0,18.367,3.687,25.061,10.372
	c6.695,6.704,10.382,15.608,10.382,25.071v69.602c0,10.739-7.997,19.926-18.602,21.37c-0.051,0.006-0.102,0.014-0.153,0.022
	c-0.884,0.133-1.835,0.201-2.825,0.201H169.287c-3.471-16.236-17.934-28.447-35.195-28.447c-5.882,0-10.652,4.769-10.652,10.652
	c0,5.883,4.77,10.652,10.652,10.652c8.098,0,14.684,6.582,14.684,14.672v3.123c0,5.883,4.77,10.652,10.652,10.652h30.857v15.186
	c0,5.883,4.77,10.652,10.652,10.652s10.652-4.769,10.652-10.652v-15.186h31.976v15.186c0,5.883,4.77,10.652,10.652,10.652
	c5.882,0,10.652-4.769,10.652-10.652v-15.186h31.975v15.186c0,5.883,4.77,10.652,10.652,10.652c5.882,0,10.652-4.769,10.652-10.652
	v-15.186h31.976v15.186c0,5.883,4.77,10.652,10.652,10.652c5.882,0,10.652-4.769,10.652-10.652v-15.186h31.976v15.186
	c0,5.883,4.77,10.652,10.652,10.652c5.882,0,10.652-4.769,10.652-10.652v-15.186h37.21c-5.009,26.484-28.312,46.582-56.235,46.582
	H111.456c-49.71-0.001-90.152-40.444-90.152-90.154v-61.537c0-13.988,5.761-27.658,15.806-37.502
	c9.868-9.672,22.742-14.849,36.309-14.575c27.582,0.546,50.021,23.451,50.021,51.06c0,5.883,4.77,10.652,10.652,10.652h56.139
	c5.882,0,10.652-4.769,10.652-10.652c0-5.883-4.77-10.652-10.652-10.652h-46.263c-2.211-15.058-9.097-28.997-19.936-40.042
	c-13.339-13.594-31.164-21.289-50.187-21.665c-19.326-0.395-37.658,6.948-51.646,20.66C8.091,167.307,0,186.522,0,206.198v61.537
	c0,61.457,49.998,111.457,111.456,111.457H405.68c40.601,0,74.106-30.96,78.141-70.508C500.374,302.623,512,286.647,512,268.411z"/>
<path d="M221.494,194.528c-5.882,0-10.652,4.769-10.652,10.652c0,5.883,4.77,10.652,10.652,10.652h5.91
	c5.882,0,10.652-4.769,10.652-10.652c0-5.883-4.77-10.652-10.652-10.652H221.494z"/>
<path d="M465.905,220.61v-17.752c0-5.883-4.77-10.652-10.652-10.652c-5.882,0-10.652,4.769-10.652,10.652v17.752
	c0,5.883,4.77,10.652,10.652,10.652C461.135,231.262,465.905,226.493,465.905,220.61z"/>
<path d="M42.939,202.949c0,5.883,4.77,10.652,10.652,10.652s10.652-4.769,10.652-10.652c0-4.609,3.749-8.359,8.359-8.359
	c4.609,0,8.359,3.749,8.359,8.359c0,5.883,4.77,10.652,10.652,10.652s10.652-4.769,10.652-10.652
	c0-16.355-13.306-29.662-29.662-29.662S42.939,186.595,42.939,202.949z"/>
<g>
</g>
<g>
</g>
<g>
</g>
<g>
</g>
<g>
</g>
<g>
</g>
<g>
</g>
<g>
</g>
<g>
</g>
<g>
</g>
<g>
</g>
<g>
</g>
<g>
</g>
<g>
</g>
<g>
</g>
</svg>
