<?xml version="1.0" encoding="UTF-8" standalone="no"?>
<!DOCTYPE svg PUBLIC "-//W3C//DTD SVG 1.1//EN" "http://www.w3.org/Graphics/SVG/1.1/DTD/svg11.dtd">
<svg width="100%" height="100%" viewBox="0 0 512 512" version="1.1" xmlns="http://www.w3.org/2000/svg" xmlns:xlink="http://www.w3.org/1999/xlink" xml:space="preserve" xmlns:serif="http://www.serif.com/" style="fill-rule:evenodd;clip-rule:evenodd;stroke-linejoin:round;stroke-miterlimit:2;">
    <g transform="matrix(1,0,0,1,0,-29.2576)">
        <g id="crocodrile" transform="matrix(1,0,0,1,0.228538,0)">
            <g transform="matrix(0.944763,0,0,0.944763,13.9121,-14.3744)">
                <path d="M473.531,300.334L473.577,300.655C473.577,338.15 443.174,368.541 405.68,368.541L111.456,368.541C55.786,368.54 10.652,323.416 10.652,267.736L10.652,206.199C10.652,171.564 38.996,142.774 73.63,143.472C107.144,144.136 134.092,171.507 134.092,205.18L409.145,205.18L409.145,198.809C409.145,173.348 429.79,152.713 455.252,152.713C467.983,152.713 479.501,157.872 487.851,166.21C496.189,174.56 501.348,186.078 501.348,198.809L501.348,268.411C501.348,284.721 489.247,298.195 473.531,300.334Z" style="fill:rgb(120,187,50);fill-rule:nonzero;"/>
            </g>
            <g transform="matrix(0.944763,0,0,0.944763,13.9121,-14.3744)">
                <path d="M512,268.411L512,198.809C512,183.661 506.101,169.41 495.379,158.673C484.653,147.961 470.402,142.061 455.253,142.061C425.397,142.061 400.851,165.229 398.654,194.528L262.291,194.528C256.409,194.528 251.639,199.297 251.639,205.18C251.639,211.063 256.409,215.832 262.291,215.832L409.145,215.832C415.027,215.832 419.797,211.063 419.797,205.18L419.797,198.809C419.797,179.265 435.702,163.366 455.252,163.366C464.716,163.366 473.619,167.053 480.313,173.738C487.008,180.442 490.695,189.346 490.695,198.809L490.695,268.411C490.695,279.15 482.698,288.337 472.093,289.781C472.042,289.787 471.991,289.795 471.94,289.803C471.056,289.936 470.105,290.004 469.115,290.004L169.287,290.004C165.816,273.768 151.353,261.557 134.092,261.557C128.21,261.557 123.44,266.326 123.44,272.209C123.44,278.092 128.21,282.861 134.092,282.861C142.19,282.861 148.776,289.443 148.776,297.533L148.776,300.656C148.776,306.539 153.546,311.308 159.428,311.308L190.285,311.308L190.285,326.494C190.285,332.377 195.055,337.146 200.937,337.146C206.819,337.146 211.589,332.377 211.589,326.494L211.589,311.308L243.565,311.308L243.565,326.494C243.565,332.377 248.335,337.146 254.217,337.146C260.099,337.146 264.869,332.377 264.869,326.494L264.869,311.308L296.844,311.308L296.844,326.494C296.844,332.377 301.614,337.146 307.496,337.146C313.378,337.146 318.148,332.377 318.148,326.494L318.148,311.308L350.124,311.308L350.124,326.494C350.124,332.377 354.894,337.146 360.776,337.146C366.658,337.146 371.428,332.377 371.428,326.494L371.428,311.308L403.404,311.308L403.404,326.494C403.404,332.377 408.174,337.146 414.056,337.146C419.938,337.146 424.708,332.377 424.708,326.494L424.708,311.308L461.918,311.308C456.909,337.792 433.606,357.89 405.683,357.89L111.456,357.89C61.746,357.889 21.304,317.446 21.304,267.736L21.304,206.199C21.304,192.211 27.065,178.541 37.11,168.697C46.978,159.025 59.852,153.848 73.419,154.122C101.001,154.668 123.44,177.573 123.44,205.182C123.44,211.065 128.21,215.834 134.092,215.834L190.231,215.834C196.113,215.834 200.883,211.065 200.883,205.182C200.883,199.299 196.113,194.53 190.231,194.53L143.968,194.53C141.757,179.472 134.871,165.533 124.032,154.488C110.693,140.894 92.868,133.199 73.845,132.823C54.519,132.428 36.187,139.771 22.199,153.483C8.091,167.307 0,186.522 0,206.198L0,267.735C0,329.192 49.998,379.192 111.456,379.192L405.68,379.192C446.281,379.192 479.786,348.232 483.821,308.684C500.374,302.623 512,286.647 512,268.411Z" style="fill:rgb(40,60,20);fill-rule:nonzero;"/>
            </g>
            <g transform="matrix(0.944763,0,0,0.944763,13.9121,-14.3744)">
                <path d="M221.494,194.528C215.612,194.528 210.842,199.297 210.842,205.18C210.842,211.063 215.612,215.832 221.494,215.832L227.404,215.832C233.286,215.832 238.056,211.063 238.056,205.18C238.056,199.297 233.286,194.528 227.404,194.528L221.494,194.528Z" style="fill:rgb(40,60,20);fill-rule:nonzero;"/>
            </g>
            <g transform="matrix(0.944763,0,0,0.944763,13.9121,-14.3744)">
                <path d="M465.905,220.61L465.905,202.858C465.905,196.975 461.135,192.206 455.253,192.206C449.371,192.206 444.601,196.975 444.601,202.858L444.601,220.61C444.601,226.493 449.371,231.262 455.253,231.262C461.135,231.262 465.905,226.493 465.905,220.61Z" style="fill:rgb(40,60,20);fill-rule:nonzero;"/>
            </g>
            <g transform="matrix(0.944763,0,0,0.944763,13.9121,-14.3744)">
                <path d="M42.939,202.949C42.939,208.832 47.709,213.601 53.591,213.601C59.473,213.601 64.243,208.832 64.243,202.949C64.243,198.34 67.992,194.59 72.602,194.59C77.211,194.59 80.961,198.339 80.961,202.949C80.961,208.832 85.731,213.601 91.613,213.601C97.495,213.601 102.265,208.832 102.265,202.949C102.265,186.594 88.959,173.287 72.603,173.287C56.247,173.287 42.939,186.595 42.939,202.949Z" style="fill:rgb(40,60,20);fill-rule:nonzero;"/>
            </g>
        </g>
        <g transform="matrix(1.6188,0,0,1.62513,-3.00295,-277.304)">
            <text x="23.993px" y="452.537px" style="font-family:'HelveticaNeue-CondensedBold', 'Helvetica Neue';font-weight:700;font-stretch:condensed;font-size:72.151px;fill:rgb(40,60,20);">POL<tspan x="128.323px 165.841px " y="452.537px 452.537px ">YD</tspan>ILE</text>
        </g>
    </g>
</svg>
