<svg xmlns="http://www.w3.org/2000/svg" width="16" height="16" viewBox="0 0 16 16" role="img" aria-label="Font Awesome logo">
  <path fill="#418fde" d="M2.86642 3C3.32224 2.71217 3.625 2.20394 3.625 1.625C3.625 0.72754 2.89746 0 2 0C1.10254 0 0.375 0.72754 0.375 1.625C0.375 2.14533 0.61956 2.60854 1 2.90596V16H3V14H14.6751C15.1307 14 15.5 13.6307 15.5 13.1751C15.5 13.0596 15.4758 12.9455 15.4289 12.84L13.5 8.5L15.4289 4.15998C15.4758 4.0545 15.5 3.94036 15.5 3.82494C15.5 3.36934 15.1307 3 14.6751 3H2.86642Z"/>
</svg>
